<svg xmlns="http://www.w3.org/2000/svg" width="870" height="1076" viewBox="0 0 870 1076" font-family="Helvetica,Arial,sans-serif">
<style>text{dominant-baseline:middle}.lbl{font-size:11px;font-weight:700}.nm{font-size:8.5px;fill:#444}.ttl{font-size:15px;font-weight:700}.sub{font-size:9.5px;fill:#555}.key{font-size:9px}.col{font-size:9px;fill:#888;font-weight:700}</style>
<rect width="870" height="1076" fill="#fff"/>
<defs><marker id="a" viewBox="0 0 10 10" refX="9" refY="5" markerWidth="5.5" markerHeight="5.5" orient="auto-start-reverse"><path d="M0,0 L10,5 L0,10 z" fill="#8894a4"/></marker></defs>
<text class="ttl" x="26" y="26">The core account: what supports what</text>
<text class="sub" x="26" y="42">A → B: A is used in the proof of B. Assumptions on the left; implied arrows removed.</text>
<rect x="26" y="60" width="9" height="9" rx="2" fill="#f3e5d0" stroke="#b08a4a"/>
<text class="key" x="40" y="65">fault model (§4.2)</text>
<rect x="132.0" y="60" width="9" height="9" rx="2" fill="#e8e8ea" stroke="#8a8a92"/>
<text class="key" x="146.0" y="65">protocol clauses (§4.1)</text>
<rect x="263.0" y="60" width="9" height="9" rx="2" fill="#fbdcdc" stroke="#c06a6a"/>
<text class="key" x="277.0" y="65">network (§4.3)</text>
<rect x="349.0" y="60" width="9" height="9" rx="2" fill="#dce8f7" stroke="#5a7fa8"/>
<text class="key" x="363.0" y="65">core: safety &amp; liveness (§5–§6)</text>
<text class="col" x="57.0" y="86" text-anchor="middle">assumptions (§4)</text>
<text class="col" x="165.0" y="86" text-anchor="middle">step 1</text>
<text class="col" x="273.0" y="86" text-anchor="middle">step 2</text>
<text class="col" x="381.0" y="86" text-anchor="middle">step 3</text>
<text class="col" x="489.0" y="86" text-anchor="middle">step 4</text>
<text class="col" x="597.0" y="86" text-anchor="middle">step 5</text>
<text class="col" x="705.0" y="86" text-anchor="middle">step 6</text>
<text class="col" x="813.0" y="86" text-anchor="middle">step 7</text>
<path d="M412.0,460.5 C435.0,460.5 435.0,526.5 458.0,526.5" fill="none" stroke="#8894a4" stroke-width="1" opacity="0.5" marker-end="url(#a)"/>
<path d="M304.0,576.0 C327.0,576.0 327.0,625.5 350.0,625.5" fill="none" stroke="#8894a4" stroke-width="1" opacity="0.5" marker-end="url(#a)"/>
<path d="M304.0,576.0 C489.0,576.0 489.0,576.0 674.0,576.0" fill="none" stroke="#8894a4" stroke-width="1" opacity="0.5" marker-end="url(#a)"/>
<path d="M88.0,724.5 C165.0,724.5 165.0,510.0 242.0,510.0" fill="none" stroke="#8894a4" stroke-width="1" opacity="0.5" marker-end="url(#a)"/>
<path d="M196.0,477.0 C273.0,477.0 273.0,559.5 350.0,559.5" fill="none" stroke="#8894a4" stroke-width="1" opacity="0.5" marker-end="url(#a)"/>
<path d="M196.0,477.0 C273.0,477.0 273.0,526.5 350.0,526.5" fill="none" stroke="#8894a4" stroke-width="1" opacity="0.5" marker-end="url(#a)"/>
<path d="M196.0,642.0 C165.0,642.0 165.0,675.0 134.0,675.0" fill="none" stroke="#8894a4" stroke-width="1" opacity="0.5" marker-end="url(#a)"/>
<path d="M88.0,526.5 C165.0,526.5 165.0,675.0 242.0,675.0" fill="none" stroke="#8894a4" stroke-width="1" opacity="0.5" marker-end="url(#a)"/>
<path d="M88.0,526.5 C111.0,526.5 111.0,378.0 134.0,378.0" fill="none" stroke="#8894a4" stroke-width="1" opacity="0.5" marker-end="url(#a)"/>
<path d="M88.0,526.5 C165.0,526.5 165.0,576.0 242.0,576.0" fill="none" stroke="#8894a4" stroke-width="1" opacity="0.5" marker-end="url(#a)"/>
<path d="M88.0,526.5 C165.0,526.5 165.0,609.0 242.0,609.0" fill="none" stroke="#8894a4" stroke-width="1" opacity="0.5" marker-end="url(#a)"/>
<path d="M304.0,510.0 C327.0,510.0 327.0,493.5 350.0,493.5" fill="none" stroke="#8894a4" stroke-width="1" opacity="0.5" marker-end="url(#a)"/>
<path d="M304.0,510.0 C327.0,510.0 327.0,559.5 350.0,559.5" fill="none" stroke="#8894a4" stroke-width="1" opacity="0.5" marker-end="url(#a)"/>
<path d="M304.0,510.0 C327.0,510.0 327.0,526.5 350.0,526.5" fill="none" stroke="#8894a4" stroke-width="1" opacity="0.5" marker-end="url(#a)"/>
<path d="M196.0,147.0 C219.0,147.0 219.0,543.0 242.0,543.0" fill="none" stroke="#8894a4" stroke-width="1" opacity="0.5" marker-end="url(#a)"/>
<path d="M196.0,147.0 C219.0,147.0 219.0,642.0 242.0,642.0" fill="none" stroke="#8894a4" stroke-width="1" opacity="0.5" marker-end="url(#a)"/>
<path d="M196.0,147.0 C219.0,147.0 219.0,675.0 242.0,675.0" fill="none" stroke="#8894a4" stroke-width="1" opacity="0.5" marker-end="url(#a)"/>
<path d="M196.0,147.0 C219.0,147.0 219.0,609.0 242.0,609.0" fill="none" stroke="#8894a4" stroke-width="1" opacity="0.5" marker-end="url(#a)"/>
<path d="M196.0,147.0 C273.0,147.0 273.0,460.5 350.0,460.5" fill="none" stroke="#8894a4" stroke-width="1" opacity="0.5" marker-end="url(#a)"/>
<path d="M196.0,147.0 C219.0,147.0 219.0,510.0 242.0,510.0" fill="none" stroke="#8894a4" stroke-width="1" opacity="0.5" marker-end="url(#a)"/>
<path d="M196.0,147.0 C219.0,147.0 219.0,576.0 242.0,576.0" fill="none" stroke="#8894a4" stroke-width="1" opacity="0.5" marker-end="url(#a)"/>
<path d="M88.0,460.5 C273.0,460.5 273.0,625.5 458.0,625.5" fill="none" stroke="#8894a4" stroke-width="1" opacity="0.5" marker-end="url(#a)"/>
<path d="M88.0,460.5 C111.0,460.5 111.0,246.0 134.0,246.0" fill="none" stroke="#8894a4" stroke-width="1" opacity="0.5" marker-end="url(#a)"/>
<path d="M88.0,592.5 C111.0,592.5 111.0,444.0 134.0,444.0" fill="none" stroke="#8894a4" stroke-width="1" opacity="0.5" marker-end="url(#a)"/>
<path d="M88.0,658.5 C111.0,658.5 111.0,477.0 134.0,477.0" fill="none" stroke="#8894a4" stroke-width="1" opacity="0.5" marker-end="url(#a)"/>
<path d="M88.0,658.5 C165.0,658.5 165.0,510.0 242.0,510.0" fill="none" stroke="#8894a4" stroke-width="1" opacity="0.5" marker-end="url(#a)"/>
<path d="M88.0,559.5 C111.0,559.5 111.0,411.0 134.0,411.0" fill="none" stroke="#8894a4" stroke-width="1" opacity="0.5" marker-end="url(#a)"/>
<path d="M88.0,559.5 C165.0,559.5 165.0,543.0 242.0,543.0" fill="none" stroke="#8894a4" stroke-width="1" opacity="0.5" marker-end="url(#a)"/>
<path d="M88.0,559.5 C165.0,559.5 165.0,609.0 242.0,609.0" fill="none" stroke="#8894a4" stroke-width="1" opacity="0.5" marker-end="url(#a)"/>
<path d="M88.0,559.5 C165.0,559.5 165.0,675.0 242.0,675.0" fill="none" stroke="#8894a4" stroke-width="1" opacity="0.5" marker-end="url(#a)"/>
<path d="M88.0,559.5 C273.0,559.5 273.0,526.5 458.0,526.5" fill="none" stroke="#8894a4" stroke-width="1" opacity="0.5" marker-end="url(#a)"/>
<path d="M88.0,559.5 C165.0,559.5 165.0,576.0 242.0,576.0" fill="none" stroke="#8894a4" stroke-width="1" opacity="0.5" marker-end="url(#a)"/>
<path d="M88.0,559.5 C111.0,559.5 111.0,378.0 134.0,378.0" fill="none" stroke="#8894a4" stroke-width="1" opacity="0.5" marker-end="url(#a)"/>
<path d="M88.0,625.5 C111.0,625.5 111.0,444.0 134.0,444.0" fill="none" stroke="#8894a4" stroke-width="1" opacity="0.5" marker-end="url(#a)"/>
<path d="M88.0,625.5 C219.0,625.5 219.0,691.5 350.0,691.5" fill="none" stroke="#8894a4" stroke-width="1" opacity="0.5" marker-end="url(#a)"/>
<path d="M196.0,939.0 C273.0,939.0 273.0,526.5 350.0,526.5" fill="none" stroke="#8894a4" stroke-width="1" opacity="0.5" marker-end="url(#a)"/>
<path d="M196.0,939.0 C165.0,939.0 165.0,213.0 134.0,213.0" fill="none" stroke="#8894a4" stroke-width="1" opacity="0.5" marker-end="url(#a)"/>
<path d="M196.0,939.0 C165.0,939.0 165.0,312.0 134.0,312.0" fill="none" stroke="#8894a4" stroke-width="1" opacity="0.5" marker-end="url(#a)"/>
<path d="M196.0,939.0 C165.0,939.0 165.0,246.0 134.0,246.0" fill="none" stroke="#8894a4" stroke-width="1" opacity="0.5" marker-end="url(#a)"/>
<path d="M196.0,939.0 C165.0,939.0 165.0,279.0 134.0,279.0" fill="none" stroke="#8894a4" stroke-width="1" opacity="0.5" marker-end="url(#a)"/>
<path d="M628.0,576.0 C651.0,576.0 651.0,576.0 674.0,576.0" fill="none" stroke="#8894a4" stroke-width="1" opacity="0.5" marker-end="url(#a)"/>
<path d="M196.0,510.0 C327.0,510.0 327.0,559.5 458.0,559.5" fill="none" stroke="#8894a4" stroke-width="1" opacity="0.5" marker-end="url(#a)"/>
<path d="M88.0,493.5 C273.0,493.5 273.0,625.5 458.0,625.5" fill="none" stroke="#8894a4" stroke-width="1" opacity="0.5" marker-end="url(#a)"/>
<path d="M88.0,493.5 C165.0,493.5 165.0,543.0 242.0,543.0" fill="none" stroke="#8894a4" stroke-width="1" opacity="0.5" marker-end="url(#a)"/>
<path d="M88.0,493.5 C165.0,493.5 165.0,609.0 242.0,609.0" fill="none" stroke="#8894a4" stroke-width="1" opacity="0.5" marker-end="url(#a)"/>
<path d="M88.0,493.5 C111.0,493.5 111.0,312.0 134.0,312.0" fill="none" stroke="#8894a4" stroke-width="1" opacity="0.5" marker-end="url(#a)"/>
<path d="M88.0,493.5 C111.0,493.5 111.0,345.0 134.0,345.0" fill="none" stroke="#8894a4" stroke-width="1" opacity="0.5" marker-end="url(#a)"/>
<path d="M88.0,493.5 C111.0,493.5 111.0,246.0 134.0,246.0" fill="none" stroke="#8894a4" stroke-width="1" opacity="0.5" marker-end="url(#a)"/>
<path d="M88.0,493.5 C111.0,493.5 111.0,411.0 134.0,411.0" fill="none" stroke="#8894a4" stroke-width="1" opacity="0.5" marker-end="url(#a)"/>
<path d="M88.0,493.5 C165.0,493.5 165.0,675.0 242.0,675.0" fill="none" stroke="#8894a4" stroke-width="1" opacity="0.5" marker-end="url(#a)"/>
<path d="M88.0,493.5 C111.0,493.5 111.0,279.0 134.0,279.0" fill="none" stroke="#8894a4" stroke-width="1" opacity="0.5" marker-end="url(#a)"/>
<path d="M88.0,493.5 C273.0,493.5 273.0,526.5 458.0,526.5" fill="none" stroke="#8894a4" stroke-width="1" opacity="0.5" marker-end="url(#a)"/>
<path d="M88.0,493.5 C165.0,493.5 165.0,576.0 242.0,576.0" fill="none" stroke="#8894a4" stroke-width="1" opacity="0.5" marker-end="url(#a)"/>
<path d="M88.0,493.5 C111.0,493.5 111.0,378.0 134.0,378.0" fill="none" stroke="#8894a4" stroke-width="1" opacity="0.5" marker-end="url(#a)"/>
<path d="M88.0,394.5 C111.0,394.5 111.0,114.0 134.0,114.0" fill="none" stroke="#8894a4" stroke-width="1" opacity="0.5" marker-end="url(#a)"/>
<path d="M88.0,394.5 C165.0,394.5 165.0,543.0 242.0,543.0" fill="none" stroke="#8894a4" stroke-width="1" opacity="0.5" marker-end="url(#a)"/>
<path d="M88.0,394.5 C111.0,394.5 111.0,213.0 134.0,213.0" fill="none" stroke="#8894a4" stroke-width="1" opacity="0.5" marker-end="url(#a)"/>
<path d="M88.0,394.5 C165.0,394.5 165.0,609.0 242.0,609.0" fill="none" stroke="#8894a4" stroke-width="1" opacity="0.5" marker-end="url(#a)"/>
<path d="M88.0,394.5 C165.0,394.5 165.0,675.0 242.0,675.0" fill="none" stroke="#8894a4" stroke-width="1" opacity="0.5" marker-end="url(#a)"/>
<path d="M88.0,394.5 C165.0,394.5 165.0,576.0 242.0,576.0" fill="none" stroke="#8894a4" stroke-width="1" opacity="0.5" marker-end="url(#a)"/>
<path d="M304.0,543.0 C327.0,543.0 327.0,592.5 350.0,592.5" fill="none" stroke="#8894a4" stroke-width="1" opacity="0.5" marker-end="url(#a)"/>
<path d="M304.0,543.0 C327.0,543.0 327.0,625.5 350.0,625.5" fill="none" stroke="#8894a4" stroke-width="1" opacity="0.5" marker-end="url(#a)"/>
<path d="M304.0,477.0 C327.0,477.0 327.0,460.5 350.0,460.5" fill="none" stroke="#8894a4" stroke-width="1" opacity="0.5" marker-end="url(#a)"/>
<path d="M196.0,807.0 C165.0,807.0 165.0,345.0 134.0,345.0" fill="none" stroke="#8894a4" stroke-width="1" opacity="0.5" marker-end="url(#a)"/>
<path d="M196.0,246.0 C327.0,246.0 327.0,592.5 458.0,592.5" fill="none" stroke="#8894a4" stroke-width="1" opacity="0.5" marker-end="url(#a)"/>
<path d="M196.0,774.0 C165.0,774.0 165.0,279.0 134.0,279.0" fill="none" stroke="#8894a4" stroke-width="1" opacity="0.5" marker-end="url(#a)"/>
<path d="M88.0,757.5 C273.0,757.5 273.0,526.5 458.0,526.5" fill="none" stroke="#8894a4" stroke-width="1" opacity="0.5" marker-end="url(#a)"/>
<path d="M412.0,526.5 C435.0,526.5 435.0,625.5 458.0,625.5" fill="none" stroke="#8894a4" stroke-width="1" opacity="0.5" marker-end="url(#a)"/>
<path d="M304.0,642.0 C327.0,642.0 327.0,691.5 350.0,691.5" fill="none" stroke="#8894a4" stroke-width="1" opacity="0.5" marker-end="url(#a)"/>
<path d="M196.0,114.0 C219.0,114.0 219.0,477.0 242.0,477.0" fill="none" stroke="#8894a4" stroke-width="1" opacity="0.5" marker-end="url(#a)"/>
<path d="M736.0,576.0 C759.0,576.0 759.0,559.5 782.0,559.5" fill="none" stroke="#8894a4" stroke-width="1" opacity="0.5" marker-end="url(#a)"/>
<path d="M736.0,576.0 C759.0,576.0 759.0,592.5 782.0,592.5" fill="none" stroke="#8894a4" stroke-width="1" opacity="0.5" marker-end="url(#a)"/>
<path d="M88.0,427.5 C111.0,427.5 111.0,114.0 134.0,114.0" fill="none" stroke="#8894a4" stroke-width="1" opacity="0.5" marker-end="url(#a)"/>
<path d="M88.0,427.5 C165.0,427.5 165.0,543.0 242.0,543.0" fill="none" stroke="#8894a4" stroke-width="1" opacity="0.5" marker-end="url(#a)"/>
<path d="M88.0,427.5 C165.0,427.5 165.0,609.0 242.0,609.0" fill="none" stroke="#8894a4" stroke-width="1" opacity="0.5" marker-end="url(#a)"/>
<path d="M88.0,427.5 C165.0,427.5 165.0,675.0 242.0,675.0" fill="none" stroke="#8894a4" stroke-width="1" opacity="0.5" marker-end="url(#a)"/>
<path d="M88.0,427.5 C165.0,427.5 165.0,576.0 242.0,576.0" fill="none" stroke="#8894a4" stroke-width="1" opacity="0.5" marker-end="url(#a)"/>
<path d="M88.0,427.5 C111.0,427.5 111.0,378.0 134.0,378.0" fill="none" stroke="#8894a4" stroke-width="1" opacity="0.5" marker-end="url(#a)"/>
<path d="M196.0,675.0 C273.0,675.0 273.0,493.5 350.0,493.5" fill="none" stroke="#8894a4" stroke-width="1" opacity="0.5" marker-end="url(#a)"/>
<path d="M196.0,675.0 C327.0,675.0 327.0,625.5 458.0,625.5" fill="none" stroke="#8894a4" stroke-width="1" opacity="0.5" marker-end="url(#a)"/>
<path d="M196.0,180.0 C165.0,180.0 165.0,576.0 134.0,576.0" fill="none" stroke="#8894a4" stroke-width="1" opacity="0.5" marker-end="url(#a)"/>
<path d="M196.0,180.0 C219.0,180.0 219.0,642.0 242.0,642.0" fill="none" stroke="#8894a4" stroke-width="1" opacity="0.5" marker-end="url(#a)"/>
<path d="M520.0,526.5 C543.0,526.5 543.0,576.0 566.0,576.0" fill="none" stroke="#8894a4" stroke-width="1" opacity="0.5" marker-end="url(#a)"/>
<path d="M412.0,592.5 C543.0,592.5 543.0,576.0 674.0,576.0" fill="none" stroke="#8894a4" stroke-width="1" opacity="0.5" marker-end="url(#a)"/>
<path d="M412.0,493.5 C435.0,493.5 435.0,559.5 458.0,559.5" fill="none" stroke="#8894a4" stroke-width="1" opacity="0.5" marker-end="url(#a)"/>
<path d="M412.0,493.5 C435.0,493.5 435.0,592.5 458.0,592.5" fill="none" stroke="#8894a4" stroke-width="1" opacity="0.5" marker-end="url(#a)"/>
<path d="M304.0,609.0 C327.0,609.0 327.0,658.5 350.0,658.5" fill="none" stroke="#8894a4" stroke-width="1" opacity="0.5" marker-end="url(#a)"/>
<path d="M88.0,361.5 C111.0,361.5 111.0,147.0 134.0,147.0" fill="none" stroke="#8894a4" stroke-width="1" opacity="0.5" marker-end="url(#a)"/>
<g><title>LeanDag.BlockUniverse.no_equivocation — BlockUniverse.no_equivocation</title>
<rect x="26.0" y="349.5" width="62" height="24" rx="5" fill="#e8e8ea" stroke="#8a8a92" stroke-width="1.2"/>
<text class="lbl" x="57.0" y="361.5" text-anchor="middle">P5</text></g>
<g><title>LeanDag.Faults.card_byzantine — Faults.card_byzantine</title>
<rect x="26.0" y="382.5" width="62" height="24" rx="5" fill="#f3e5d0" stroke="#b08a4a" stroke-width="1.2"/>
<text class="lbl" x="57.0" y="394.5" text-anchor="middle">A2</text></g>
<g><title>LeanDag.Faults.card_validators — Faults.card_validators</title>
<rect x="26.0" y="415.5" width="62" height="24" rx="5" fill="#f3e5d0" stroke="#b08a4a" stroke-width="1.2"/>
<text class="lbl" x="57.0" y="427.5" text-anchor="middle">A1</text></g>
<g><title>LeanDag.FairScheduleOn — FairScheduleOn</title>
<rect x="26.0" y="448.5" width="62" height="24" rx="5" fill="#e8e8ea" stroke="#8a8a92" stroke-width="1.2"/>
<text class="lbl" x="57.0" y="460.5" text-anchor="middle">P10</text></g>
<g><title>LeanDag.BlockUniverse.complete — BlockUniverse.complete</title>
<rect x="26.0" y="481.5" width="62" height="24" rx="5" fill="#e8e8ea" stroke="#8a8a92" stroke-width="1.2"/>
<text class="lbl" x="57.0" y="493.5" text-anchor="middle">P4</text></g>
<g><title>LeanDag.ValidWrt.quorum — ValidWrt.quorum</title>
<rect x="26.0" y="514.5" width="62" height="24" rx="5" fill="#e8e8ea" stroke="#8a8a92" stroke-width="1.2"/>
<text class="lbl" x="57.0" y="526.5" text-anchor="middle">P3</text></g>
<g><title>LeanDag.ValidWrt.predecessor — ValidWrt.predecessor</title>
<rect x="26.0" y="547.5" width="62" height="24" rx="5" fill="#e8e8ea" stroke="#8a8a92" stroke-width="1.2"/>
<text class="lbl" x="57.0" y="559.5" text-anchor="middle">P1</text></g>
<g><title>LeanDag.Delivery.includes — Delivery.includes</title>
<rect x="26.0" y="580.5" width="62" height="24" rx="5" fill="#e8e8ea" stroke="#8a8a92" stroke-width="1.2"/>
<text class="lbl" x="57.0" y="592.5" text-anchor="middle">P7</text></g>
<g><title>LeanDag.EventuallyDelivers — EventuallyDelivers</title>
<rect x="26.0" y="613.5" width="62" height="24" rx="5" fill="#fbdcdc" stroke="#c06a6a" stroke-width="1.2"/>
<text class="lbl" x="57.0" y="625.5" text-anchor="middle">N2a</text></g>
<g><title>LeanDag.Timing.waits — Timing.waits</title>
<rect x="26.0" y="646.5" width="62" height="24" rx="5" fill="#e8e8ea" stroke="#8a8a92" stroke-width="1.2"/>
<text class="lbl" x="57.0" y="658.5" text-anchor="middle">P9</text></g>
<g><title>LeanDag.Live.builds — Live.builds</title>
<rect x="26.0" y="679.5" width="62" height="24" rx="5" fill="#e8e8ea" stroke="#8a8a92" stroke-width="1.2"/>
<text class="lbl" x="57.0" y="691.5" text-anchor="middle">P8</text></g>
<g><title>LeanDag.Timing.covers — Timing.covers</title>
<rect x="26.0" y="712.5" width="62" height="24" rx="5" fill="#fbdcdc" stroke="#c06a6a" stroke-width="1.2"/>
<text class="lbl" x="57.0" y="724.5" text-anchor="middle">N2b</text></g>
<g><title>LeanDag.ValidWrt.distinct_creators — ValidWrt.distinct_creators</title>
<rect x="26.0" y="745.5" width="62" height="24" rx="5" fill="#e8e8ea" stroke="#8a8a92" stroke-width="1.2"/>
<text class="lbl" x="57.0" y="757.5" text-anchor="middle">P2</text></g>
<g><title>LeanDag.ValidWrt.self_parent — ValidWrt.self_parent</title>
<rect x="26.0" y="778.5" width="62" height="24" rx="5" fill="#e8e8ea" stroke="#8a8a92" stroke-width="1.2"/>
<text class="lbl" x="57.0" y="790.5" text-anchor="middle">P3&#x27;</text></g>
<g><title>LeanDag.exists_correct_mem_inter — two quorums share a correct validator</title>
<rect x="134.0" y="102.0" width="62" height="24" rx="5" fill="#dce8f7" stroke="#5a7fa8" stroke-width="1.2"/>
<text class="lbl" x="165.0" y="114.0" text-anchor="middle">T0</text></g>
<g><title>LeanDag.BlockUniverse.eq_of_creator_eq — non-equivocation, in usable form</title>
<rect x="134.0" y="135.0" width="62" height="24" rx="5" fill="#dce8f7" stroke="#5a7fa8" stroke-width="1.2"/>
<text class="lbl" x="165.0" y="147.0" text-anchor="middle">T1</text></g>
<g><title>LeanDag.ViewGrowth — production from timed view convergence, from the GST crossing</title>
<rect x="134.0" y="168.0" width="62" height="24" rx="5" fill="#dce8f7" stroke="#5a7fa8" stroke-width="1.2"/>
<text class="lbl" x="165.0" y="180.0" text-anchor="middle">V6</text></g>
<g><title>LeanDag.directCommit_of_correct_leader — at `T := Correct`</title>
<rect x="134.0" y="201.0" width="62" height="24" rx="5" fill="#dce8f7" stroke="#5a7fa8" stroke-width="1.2"/>
<text class="lbl" x="165.0" y="213.0" text-anchor="middle">L4′</text></g>
<g><title>LeanDag.commits_recur_on — commits recur</title>
<rect x="134.0" y="234.0" width="62" height="24" rx="5" fill="#dce8f7" stroke="#5a7fa8" stroke-width="1.2"/>
<text class="lbl" x="165.0" y="246.0" text-anchor="middle">L6</text></g>
<g><title>LeanDag.all_decided_below_of_fairRun — every slot below a fair run is decided (pipelined)</title>
<rect x="134.0" y="267.0" width="62" height="24" rx="5" fill="#dce8f7" stroke="#5a7fa8" stroke-width="1.2"/>
<text class="lbl" x="165.0" y="279.0" text-anchor="middle">L10</text></g>
<g><title>LeanDag.commits_recur_within — the committing slot, and its round</title>
<rect x="134.0" y="300.0" width="62" height="24" rx="5" fill="#dce8f7" stroke="#5a7fa8" stroke-width="1.2"/>
<text class="lbl" x="165.0" y="312.0" text-anchor="middle">L8b</text></g>
<g><title>LeanDag.decided_full — decisions propagate to the full view</title>
<rect x="134.0" y="333.0" width="62" height="24" rx="5" fill="#dce8f7" stroke="#5a7fa8" stroke-width="1.2"/>
<text class="lbl" x="165.0" y="345.0" text-anchor="middle">L3</text></g>
<g><title>LeanDag.card_authorsAt_of_lt — the DAG is dense below its frontier</title>
<rect x="134.0" y="366.0" width="62" height="24" rx="5" fill="#dce8f7" stroke="#5a7fa8" stroke-width="1.2"/>
<text class="lbl" x="165.0" y="378.0" text-anchor="middle">L0</text></g>
<g><title>LeanDag.round_le_of_reaches — causal history is non-increasing in round</title>
<rect x="134.0" y="399.0" width="62" height="24" rx="5" fill="#dce8f7" stroke="#5a7fa8" stroke-width="1.2"/>
<text class="lbl" x="165.0" y="411.0" text-anchor="middle">T2</text></g>
<g><title>LeanDag.synchronised_of_delivery — coverage from delivery</title>
<rect x="134.0" y="432.0" width="62" height="24" rx="5" fill="#dce8f7" stroke="#5a7fa8" stroke-width="1.2"/>
<text class="lbl" x="165.0" y="444.0" text-anchor="middle">L7a</text></g>
<g><title>LeanDag.Timing.driftFrom_of_prompt — drift is derived</title>
<rect x="134.0" y="465.0" width="62" height="24" rx="5" fill="#dce8f7" stroke="#5a7fa8" stroke-width="1.2"/>
<text class="lbl" x="165.0" y="477.0" text-anchor="middle">L11</text></g>
<g><title>LeanDag.CatchupSync.drift_collapse — drift collapses to `Δ + proc`, from any spread</title>
<rect x="134.0" y="498.0" width="62" height="24" rx="5" fill="#dce8f7" stroke="#5a7fa8" stroke-width="1.2"/>
<text class="lbl" x="165.0" y="510.0" text-anchor="middle">CU2</text></g>
<g><title>LeanDag.View.mem_of_reaches — causal history does not escape a view</title>
<rect x="134.0" y="531.0" width="62" height="24" rx="5" fill="#dce8f7" stroke="#5a7fa8" stroke-width="1.2"/>
<text class="lbl" x="165.0" y="543.0" text-anchor="middle">T6a</text></g>
<g><title>LeanDag.ViewGrowth.synchronisedOn_of_converges — and again with production derived from the build rule, not assumed</title>
<rect x="134.0" y="564.0" width="62" height="24" rx="5" fill="#dce8f7" stroke="#5a7fa8" stroke-width="1.2"/>
<text class="lbl" x="165.0" y="576.0" text-anchor="middle">V15</text></g>
<g><title>LeanDag.ViewSync.ViewsAgree — build-time views agree</title>
<rect x="134.0" y="597.0" width="62" height="24" rx="5" fill="#dce8f7" stroke="#5a7fa8" stroke-width="1.2"/>
<text class="lbl" x="165.0" y="609.0" text-anchor="middle">V3</text></g>
<g><title>LeanDag.ViewSync.covers_of_converges — the referencing clause, unfused from the network&#x27;s</title>
<rect x="134.0" y="630.0" width="62" height="24" rx="5" fill="#dce8f7" stroke="#5a7fa8" stroke-width="1.2"/>
<text class="lbl" x="165.0" y="642.0" text-anchor="middle">V1</text></g>
<g><title>LeanDag.ViewSync.toTiming — the timing route derived from the view-level one</title>
<rect x="134.0" y="663.0" width="62" height="24" rx="5" fill="#dce8f7" stroke="#5a7fa8" stroke-width="1.2"/>
<text class="lbl" x="165.0" y="675.0" text-anchor="middle">V2</text></g>
<g><title>LeanDag.ViewsConverge — production from untimed view convergence, without N1</title>
<rect x="134.0" y="696.0" width="62" height="24" rx="5" fill="#dce8f7" stroke="#5a7fa8" stroke-width="1.2"/>
<text class="lbl" x="165.0" y="708.0" text-anchor="middle">V5</text></g>
<g><title>LeanDag.convergesWithin_iff_bounded — the bound factored out of convergence</title>
<rect x="134.0" y="729.0" width="62" height="24" rx="5" fill="#dce8f7" stroke="#5a7fa8" stroke-width="1.2"/>
<text class="lbl" x="165.0" y="741.0" text-anchor="middle">V4</text></g>
<g><title>LeanDag.decided_below_of_committed_run — a committed run of eligible span clears everything below</title>
<rect x="134.0" y="762.0" width="62" height="24" rx="5" fill="#dce8f7" stroke="#5a7fa8" stroke-width="1.2"/>
<text class="lbl" x="165.0" y="774.0" text-anchor="middle">L8e</text></g>
<g><title>LeanDag.decided_mono — decisions are monotone in the view</title>
<rect x="134.0" y="795.0" width="62" height="24" rx="5" fill="#dce8f7" stroke="#5a7fa8" stroke-width="1.2"/>
<text class="lbl" x="165.0" y="807.0" text-anchor="middle">L2</text></g>
<g><title>LeanDag.decided_none_of_leader_absent — an absent leader is skipped</title>
<rect x="134.0" y="828.0" width="62" height="24" rx="5" fill="#dce8f7" stroke="#5a7fa8" stroke-width="1.2"/>
<text class="lbl" x="165.0" y="840.0" text-anchor="middle">L5</text></g>
<g><title>LeanDag.decided_of_committed_above — a committed slot above decides everything below (spaced schedules)</title>
<rect x="134.0" y="861.0" width="62" height="24" rx="5" fill="#dce8f7" stroke="#5a7fa8" stroke-width="1.2"/>
<text class="lbl" x="165.0" y="873.0" text-anchor="middle">L8d</text></g>
<g><title>LeanDag.decided_of_first_eligible_commit — a slot resolves through its first eligible commit</title>
<rect x="134.0" y="894.0" width="62" height="24" rx="5" fill="#dce8f7" stroke="#5a7fa8" stroke-width="1.2"/>
<text class="lbl" x="165.0" y="906.0" text-anchor="middle">L8c</text></g>
<g><title>LeanDag.directCommit_of_leader_mem — a correct leader is committed</title>
<rect x="134.0" y="927.0" width="62" height="24" rx="5" fill="#dce8f7" stroke="#5a7fa8" stroke-width="1.2"/>
<text class="lbl" x="165.0" y="939.0" text-anchor="middle">L4</text></g>
<g><title>LeanDag.exists_blk_of_populatedOn — the assumed production clause is the derived one, Skolemised</title>
<rect x="134.0" y="960.0" width="62" height="24" rx="5" fill="#dce8f7" stroke="#5a7fa8" stroke-width="1.2"/>
<text class="lbl" x="165.0" y="972.0" text-anchor="middle">V7</text></g>
<g><title>LeanDag.ledgerSet_mono — the ledger is monotone and agreed</title>
<rect x="134.0" y="993.0" width="62" height="24" rx="5" fill="#dce8f7" stroke="#5a7fa8" stroke-width="1.2"/>
<text class="lbl" x="165.0" y="1005.0" text-anchor="middle">M8</text></g>
<g><title>LeanDag.outputAt_unique — a block enters at one slot, agreed</title>
<rect x="134.0" y="1026.0" width="62" height="24" rx="5" fill="#dce8f7" stroke="#5a7fa8" stroke-width="1.2"/>
<text class="lbl" x="165.0" y="1038.0" text-anchor="middle">M9</text></g>
<g><title>LeanDag.BlockUniverse.exists_common_mem_of_quorums — two quorum-backed sets of round-`n` blocks share a block</title>
<rect x="350.0" y="448.5" width="62" height="24" rx="5" fill="#dce8f7" stroke="#5a7fa8" stroke-width="1.2"/>
<text class="lbl" x="381.0" y="460.5" text-anchor="middle">T6</text></g>
<g><title>LeanDag.ViewSync.synchronisedOn_of_converges — coverage from view convergence</title>
<rect x="350.0" y="481.5" width="62" height="24" rx="5" fill="#dce8f7" stroke="#5a7fa8" stroke-width="1.2"/>
<text class="lbl" x="381.0" y="493.5" text-anchor="middle">L7c</text></g>
<g><title>LeanDag.directCommit_of_wait — the wait bound</title>
<rect x="350.0" y="514.5" width="62" height="24" rx="5" fill="#dce8f7" stroke="#5a7fa8" stroke-width="1.2"/>
<text class="lbl" x="381.0" y="526.5" text-anchor="middle">L9</text></g>
<g><title>LeanDag.synchronisedOn_of_rate — the round of coverage, explicitly</title>
<rect x="350.0" y="547.5" width="62" height="24" rx="5" fill="#dce8f7" stroke="#5a7fa8" stroke-width="1.2"/>
<text class="lbl" x="381.0" y="559.5" text-anchor="middle">L8a</text></g>
<g><title>LeanDag.not_directCommit_of_directSkip — no block is both committed and skipped</title>
<rect x="350.0" y="580.5" width="62" height="24" rx="5" fill="#dce8f7" stroke="#5a7fa8" stroke-width="1.2"/>
<text class="lbl" x="381.0" y="592.5" text-anchor="middle">M1</text></g>
<g><title>LeanDag.indirect_agrees_with_direct — the indirect rule agrees with the direct</title>
<rect x="350.0" y="613.5" width="62" height="24" rx="5" fill="#dce8f7" stroke="#5a7fa8" stroke-width="1.2"/>
<text class="lbl" x="381.0" y="625.5" text-anchor="middle">M4</text></g>
<g><title>LeanDag.exists_common_correct_ancestor — a common correct ancestor</title>
<rect x="350.0" y="646.5" width="62" height="24" rx="5" fill="#dce8f7" stroke="#5a7fa8" stroke-width="1.2"/>
<text class="lbl" x="381.0" y="658.5" text-anchor="middle">T3c</text></g>
<g><title>LeanDag.ViewGrowth.eventuallyDelivers_toDelivery — N2a and L7a derived from view convergence</title>
<rect x="350.0" y="679.5" width="62" height="24" rx="5" fill="#dce8f7" stroke="#5a7fa8" stroke-width="1.2"/>
<text class="lbl" x="381.0" y="691.5" text-anchor="middle">V9</text></g>
<g><title>LeanDag.eq_of_certificates_nonempty — certificate uniqueness</title>
<rect x="458.0" y="514.5" width="62" height="24" rx="5" fill="#dce8f7" stroke="#5a7fa8" stroke-width="1.2"/>
<text class="lbl" x="489.0" y="526.5" text-anchor="middle">M5′</text></g>
<g><title>LeanDag.CatchupSync.synchronisedOn_of_catchup — the deployment-free threshold `2Δ + proc`</title>
<rect x="458.0" y="547.5" width="62" height="24" rx="5" fill="#dce8f7" stroke="#5a7fa8" stroke-width="1.2"/>
<text class="lbl" x="489.0" y="559.5" text-anchor="middle">CU3</text></g>
<g><title>LeanDag.ViewSync.commits_recur_via_interface — the same liveness, routed through the two conditions §6 names</title>
<rect x="458.0" y="580.5" width="62" height="24" rx="5" fill="#dce8f7" stroke="#5a7fa8" stroke-width="1.2"/>
<text class="lbl" x="489.0" y="592.5" text-anchor="middle">V14</text></g>
<g><title>LeanDag.ViewSync.commits_recur_of_converges — liveness on the view-convergence foundation</title>
<rect x="458.0" y="613.5" width="62" height="24" rx="5" fill="#dce8f7" stroke="#5a7fa8" stroke-width="1.2"/>
<text class="lbl" x="489.0" y="625.5" text-anchor="middle">V13</text></g>
<g><title>LeanDag.exists_correct_mem_creators_inter — two quorum-backed identifier sets share a correct author</title>
<rect x="242.0" y="465.0" width="62" height="24" rx="5" fill="#dce8f7" stroke="#5a7fa8" stroke-width="1.2"/>
<text class="lbl" x="273.0" y="477.0" text-anchor="middle">T0′</text></g>
<g><title>LeanDag.Timing.synchronisedOn_of_timing — coverage from GST</title>
<rect x="242.0" y="498.0" width="62" height="24" rx="5" fill="#dce8f7" stroke="#5a7fa8" stroke-width="1.2"/>
<text class="lbl" x="273.0" y="510.0" text-anchor="middle">L7b</text></g>
<g><title>LeanDag.certificates_eq_empty_of_directSkip — a skipped block has no certificate anywhere</title>
<rect x="242.0" y="531.0" width="62" height="24" rx="5" fill="#dce8f7" stroke="#5a7fa8" stroke-width="1.2"/>
<text class="lbl" x="273.0" y="543.0" text-anchor="middle">M3</text></g>
<g><title>LeanDag.exists_certificate_reaches_of_directCommit — a committed block&#x27;s certificate is unavoidable from `r+3`</title>
<rect x="242.0" y="564.0" width="62" height="24" rx="5" fill="#dce8f7" stroke="#5a7fa8" stroke-width="1.2"/>
<text class="lbl" x="273.0" y="576.0" text-anchor="middle">M2</text></g>
<g><title>LeanDag.exists_correct_common_support — correct-support counting</title>
<rect x="242.0" y="597.0" width="62" height="24" rx="5" fill="#dce8f7" stroke="#5a7fa8" stroke-width="1.2"/>
<text class="lbl" x="273.0" y="609.0" text-anchor="middle">T3a</text></g>
<g><title>LeanDag.ViewGrowth.toDelivery — the untimed condition induced by the timed structure</title>
<rect x="242.0" y="630.0" width="62" height="24" rx="5" fill="#dce8f7" stroke="#5a7fa8" stroke-width="1.2"/>
<text class="lbl" x="273.0" y="642.0" text-anchor="middle">V8</text></g>
<g><title>LeanDag.reaches_of_quorum_support — persistence</title>
<rect x="242.0" y="663.0" width="62" height="24" rx="5" fill="#dce8f7" stroke="#5a7fa8" stroke-width="1.2"/>
<text class="lbl" x="273.0" y="675.0" text-anchor="middle">T3</text></g>
<g><title>LeanDag.commitSeq_agree — the committed-leader sequence is agreed</title>
<rect x="782.0" y="547.5" width="62" height="24" rx="5" fill="#dce8f7" stroke="#5a7fa8" stroke-width="1.2"/>
<text class="lbl" x="813.0" y="559.5" text-anchor="middle">M7</text></g>
<g><title>LeanDag.eq_of_decided_commit — corollaries of agreement</title>
<rect x="782.0" y="580.5" width="62" height="24" rx="5" fill="#dce8f7" stroke="#5a7fa8" stroke-width="1.2"/>
<text class="lbl" x="813.0" y="592.5" text-anchor="middle">M6′</text></g>
<g><title>LeanDag.decided_unique — agreement</title>
<rect x="674.0" y="564.0" width="62" height="24" rx="5" fill="#dce8f7" stroke="#5a7fa8" stroke-width="1.2"/>
<text class="lbl" x="705.0" y="576.0" text-anchor="middle">M6</text></g>
<g><title>LeanDag.eq_of_directCommit_of_creator_eq — at most one block per slot is directly committed</title>
<rect x="566.0" y="564.0" width="62" height="24" rx="5" fill="#dce8f7" stroke="#5a7fa8" stroke-width="1.2"/>
<text class="lbl" x="597.0" y="576.0" text-anchor="middle">M5</text></g>
</svg>